<svg xmlns="http://www.w3.org/2000/svg"  viewBox="0 0 120 120" width="60px" height="60px" baseProfile="basic"><polygon points="112.001,59 100.001,49 103.001,27 85,26 80,6 60.001,22.232 59.999,22.232 39.999,6 34.999,25 16.999,27 19.999,49 7.999,59 23.336,69.5 11.479,79.5 20.999,87 20.999,101 40.999,96 59.999,96 60.001,96 79.001,96 99.001,101 99.001,87 108.521,79.5 96.664,69.5" opacity=".35"/><polygon fill="#a4e2f1" points="112.001,55 97.001,45 102.001,23 82.001,24 80.001,2 60.001,18.232 59.999,18.232 39.999,2 37.999,24 17.999,23 22.999,45 7.999,55 23.336,65.5 11.479,75.5 20.999,83 20.999,97 40.999,92 59.999,92 60.001,92 79.001,92 99.001,97 99.001,83 108.521,75.5 96.664,65.5"/><circle cx="84" cy="80" r="8" opacity=".35"/><circle cx="36" cy="80" r="8" opacity=".35"/><circle cx="84" cy="76" r="8" fill="#ffa6a3"/><circle cx="36" cy="76" r="8" fill="#ffa6a3"/><path d="M60,115L60,115c-13.255,0-24-10.745-24-24V59c0-13.255,10.745-24,24-24h0c13.255,0,24,10.745,24,24 v32C84,104.255,73.255,115,60,115z" opacity=".35"/><path fill="#ffc1bf" d="M60,111L60,111c-13.255,0-24-10.745-24-24V55c0-13.255,10.745-24,24-24h0c13.255,0,24,10.745,24,24 v32C84,100.255,73.255,111,60,111z"/><path fill="#ff9182" d="M60,84L60,84c-2.209,0-4-1.791-4-4V66h8v14C64,82.209,62.209,84,60,84z"/><circle cx="70.5" cy="66.5" r="10.5" fill="#fff"/><circle cx="49.5" cy="66" r="10.5" fill="#fff"/><circle cx="71.5" cy="64.5" r="3.5" fill="#0037ff"/><circle cx="48.5" cy="67.5" r="3.5" fill="#0037ff"/><path fill="#44bf00" d="M58.106,99H56v-7h6v3.106C62,97.257,60.257,99,58.106,99z"/><path fill="#44bf00" d="M53,104L53,104c-1.657,0-3-1.343-3-3v-8h6v8C56,102.657,54.657,104,53,104z"/><path d="M59.988,60.951c-9.298,0-15.208-2.373-18.53-4.363l3.084-5.146c2.187,1.311,7.102,3.509,15.446,3.509 c8.36,0,13.279-2.207,15.466-3.522l3.092,5.143C75.222,58.569,69.305,60.951,59.988,60.951z" opacity=".35"/><path fill="#a4e2f1" d="M59.988,57.951c-9.298,0-15.208-2.373-18.53-4.363l3.084-5.146 c2.187,1.311,7.102,3.509,15.446,3.509c8.36,0,13.279-2.207,15.466-3.522l3.092,5.143C75.222,55.569,69.305,57.951,59.988,57.951z"/><path fill="#ff9182" d="M73.311,97.43C71.431,96.149,67.2,94,59.989,94c-7.196,0-11.424,2.142-13.304,3.418l-3.37-4.964 C46.307,90.422,51.629,88,59.989,88c8.378,0,13.706,2.432,16.7,4.471L73.311,97.43z"/></svg>